<svg width="240" height="292" viewBox="0 0 240 292" fill="none" xmlns="http://www.w3.org/2000/svg">
<path d="M183.913 259.088H54.9413C42.2232 259.088 31.4753 248.621 31.4753 235.493V123.017C31.4753 110.066 42.0441 99.4219 54.9413 99.4219C67.8385 99.4219 78.4067 109.889 78.4067 123.017V212.075H183.913C196.631 212.075 207.379 222.542 207.379 235.67C207.379 248.621 196.631 259.088 183.913 259.088Z" fill="#FFF"/>
<path d="M183.913 191.319C171.195 191.319 160.447 180.852 160.447 167.724V78.6656H54.9413C42.2232 78.6656 31.4753 68.1987 31.4753 55.0706C31.4753 42.1199 42.0441 31.4756 54.9413 31.4756H183.913C196.631 31.4756 207.379 41.9425 207.379 55.0706V167.546C207.379 181.029 196.631 191.319 183.913 191.319Z" fill="#FFF"/>
</svg>
