<?xml version="1.0" encoding="UTF-8"?>
<svg xmlns="http://www.w3.org/2000/svg" xmlns:xlink="http://www.w3.org/1999/xlink" width="13pt" height="15pt" viewBox="0 0 13 15" version="1.1">
<g id="surface1">
<path style=" stroke:none;fill-rule:nonzero;fill:rgb(100%,100%,100%);fill-opacity:1;" d="M 9.960938 13.308594 L 2.976562 13.308594 C 2.285156 13.308594 1.703125 12.773438 1.703125 12.097656 L 1.703125 6.320312 C 1.703125 5.652344 2.277344 5.105469 2.976562 5.105469 C 3.675781 5.105469 4.246094 5.644531 4.246094 6.320312 L 4.246094 10.894531 L 9.960938 10.894531 C 10.652344 10.894531 11.234375 11.433594 11.234375 12.105469 C 11.234375 12.773438 10.652344 13.308594 9.960938 13.308594 Z M 9.960938 13.308594 "/>
<path style=" stroke:none;fill-rule:nonzero;fill:rgb(100%,100%,100%);fill-opacity:1;" d="M 9.960938 9.828125 C 9.273438 9.828125 8.691406 9.289062 8.691406 8.617188 L 8.691406 4.042969 L 2.976562 4.042969 C 2.285156 4.042969 1.703125 3.503906 1.703125 2.828125 C 1.703125 2.164062 2.277344 1.617188 2.976562 1.617188 L 9.960938 1.617188 C 10.652344 1.617188 11.234375 2.15625 11.234375 2.828125 L 11.234375 8.605469 C 11.234375 9.300781 10.652344 9.828125 9.960938 9.828125 Z M 9.960938 9.828125 "/>
</g>
</svg>
